ffmpeg started on 2026-04-02 at 13:18:49
Report written to "D:\Convert\FFMetrics\reports\psnr_report-6.txt"
Log level: 32
Command line:
ffmpeg -hide_banner -nostdin -r 24/1 -i "F:\\Convert\\files\\Dungeon_ni_Deai_wo_Motomeru_no_wa_Machigatteiru_no_Darou_ka_V_[01]_[AniLibria]_[WEBRip_1080p]_HEVC(308).mkv" -r 24/1 -i "F:\\Convert\\files\\Dungeon_ni_Deai_wo_Motomeru_no_wa_Machigatteiru_no_Darou_ka_V_[01]_[AniLibria]_[WEBRip_1080p].mkv" -lavfi "[0:v]settb=AVTB,setpts=PTS-STARTPTS,format=pix_fmts=yuv420p10le,fps=24/1,scale=1920:1080:flags=lanczos:param0=3:out_range=limited:out_chroma_loc=left,setsar=1/1,setdar=(1920/1080)*(1/1)[main];[1:v]settb=AVTB,setpts=PTS-STARTPTS,format=pix_fmts=yuv420p,fps=24/1,scale=1920:1080:flags=lanczos:param0=3:out_range=limited:out_chroma_loc=left,setsar=1/1,setdar=(1920/1080)*(1/1)[ref];[main][ref]psnr=eof_action=endall:stats_file='D\\:/Convert/FFMetrics/logs/psnr_logfile-6.txt'" -f null -
Input #0, matroska,webm, from 'F:\Convert\files\Dungeon_ni_Deai_wo_Motomeru_no_wa_Machigatteiru_no_Darou_ka_V_[01]_[AniLibria]_[WEBRip_1080p]_HEVC(308).mkv':
  Metadata:
    ENCODER         : Lavf61.7.100
  Duration: 00:23:42.42, start: -0.021000, bitrate: 999 kb/s
  Stream #0:0(jpn): Video: hevc (Main 10), yuv420p10le(tv, progressive), 1920x1080 [SAR 1:1 DAR 16:9], 24 fps, 24 tbr, 1k tbn (default) (forced)
      Metadata:
        ENCODER         : Lavc61.19.100 libx265
        BPS             : 752932
        DURATION        : 00:23:42.416666666
        NUMBER_OF_FRAMES: 34138
        NUMBER_OF_BYTES : 133872970
        _STATISTICS_WRITING_APP: mkvpropedit v94.0 ('Initiate') 64-bit
        _STATISTICS_WRITING_DATE_UTC: 2026-04-02 09:47:07
        _STATISTICS_TAGS: BPS DURATION NUMBER_OF_FRAMES NUMBER_OF_BYTES
  Stream #0:1(rus): Audio: aac (LC), 48000 Hz, stereo, fltp (default) (forced)
      Metadata:
        title           : AniLibria
        ENCODER         : Lavc61.19.100 aac
        BPS             : 194199
        DURATION        : 00:23:42.399000000
        NUMBER_OF_FRAMES: 66676
        NUMBER_OF_BYTES : 34528622
        _STATISTICS_WRITING_APP: mkvpropedit v94.0 ('Initiate') 64-bit
        _STATISTICS_WRITING_DATE_UTC: 2026-04-02 09:47:07
        _STATISTICS_TAGS: BPS DURATION NUMBER_OF_FRAMES NUMBER_OF_BYTES
  Stream #0:2(rus): Subtitle: ass (ssa) (default) (forced)
      Metadata:
        title           : Надписи
        BPS             : 142
        DURATION        : 00:22:42.440000000
        NUMBER_OF_FRAMES: 88
        NUMBER_OF_BYTES : 24274
        _STATISTICS_WRITING_APP: mkvpropedit v94.0 ('Initiate') 64-bit
        _STATISTICS_WRITING_DATE_UTC: 2026-04-02 09:47:07
        _STATISTICS_TAGS: BPS DURATION NUMBER_OF_FRAMES NUMBER_OF_BYTES
  Stream #0:3(rus): Subtitle: ass (ssa)
      Metadata:
        title           : Полные
        BPS             : 303
        DURATION        : 00:23:34.040000000
        NUMBER_OF_FRAMES: 463
        NUMBER_OF_BYTES : 53572
        _STATISTICS_WRITING_APP: mkvpropedit v94.0 ('Initiate') 64-bit
        _STATISTICS_WRITING_DATE_UTC: 2026-04-02 09:47:07
        _STATISTICS_TAGS: BPS DURATION NUMBER_OF_FRAMES NUMBER_OF_BYTES
  Stream #0:4: Attachment: ttf
      Metadata:
        filename        : 10352_0.TTF
        mimetype        : application/x-truetype-font
  Stream #0:5: Attachment: ttf
      Metadata:
        filename        : ARIAL.TTF
        mimetype        : application/x-truetype-font
  Stream #0:6: Attachment: ttf
      Metadata:
        filename        : ARIAL_4.TTF
        mimetype        : application/x-truetype-font
  Stream #0:7: Attachment: ttf
      Metadata:
        filename        : ARIALBD.TTF
        mimetype        : application/x-truetype-font
  Stream #0:8: Attachment: ttf
      Metadata:
        filename        : ARIALBD_0.TTF
        mimetype        : application/x-truetype-font
  Stream #0:9: Attachment: ttf
      Metadata:
        filename        : ARIALBI.TTF
        mimetype        : application/x-truetype-font
  Stream #0:10: Attachment: ttf
      Metadata:
        filename        : ARIALBI_0.TTF
        mimetype        : application/x-truetype-font
  Stream #0:11: Attachment: ttf
      Metadata:
        filename        : ARIALI.TTF
        mimetype        : application/x-truetype-font
  Stream #0:12: Attachment: ttf
      Metadata:
        filename        : ARIALI_0.TTF
        mimetype        : application/x-truetype-font
  Stream #0:13: Attachment: ttf
      Metadata:
        filename        : ARIALN.TTF
        mimetype        : application/x-truetype-font
  Stream #0:14: Attachment: ttf
      Metadata:
        filename        : ARIALN_0.TTF
        mimetype        : application/x-truetype-font
  Stream #0:15: Attachment: ttf
      Metadata:
        filename        : ARIALNB.TTF
        mimetype        : application/x-truetype-font
  Stream #0:16: Attachment: ttf
      Metadata:
        filename        : ARIALNBI.TTF
        mimetype        : application/x-truetype-font
  Stream #0:17: Attachment: ttf
      Metadata:
        filename        : ARIALNI.TTF
        mimetype        : application/x-truetype-font
  Stream #0:18: Attachment: ttf
      Metadata:
        filename        : ARIBLK.TTF
        mimetype        : application/x-truetype-font
  Stream #0:19: Attachment: ttf
      Metadata:
        filename        : ARIBLK_0.TTF
        mimetype        : application/x-truetype-font
  Stream #0:20: Attachment: ttf
      Metadata:
        filename        : ARLEKINO.TTF
        mimetype        : application/x-truetype-font
  Stream #0:21: Attachment: ttf
      Metadata:
        filename        : BOOKOS.TTF
        mimetype        : application/x-truetype-font
  Stream #0:22: Attachment: ttf
      Metadata:
        filename        : BOOKOS_0.TTF
        mimetype        : application/x-truetype-font
  Stream #0:23: Attachment: ttf
      Metadata:
        filename        : BOOKOSB.TTF
        mimetype        : application/x-truetype-font
  Stream #0:24: Attachment: ttf
      Metadata:
        filename        : BOOKOSBI.TTF
        mimetype        : application/x-truetype-font
  Stream #0:25: Attachment: ttf
      Metadata:
        filename        : BOOKOSI.TTF
        mimetype        : application/x-truetype-font
  Stream #0:26: Attachment: ttf
      Metadata:
        filename        : Roboto-Medium.ttf
        mimetype        : application/x-truetype-font
Input #1, matroska,webm, from 'F:\Convert\files\Dungeon_ni_Deai_wo_Motomeru_no_wa_Machigatteiru_no_Darou_ka_V_[01]_[AniLibria]_[WEBRip_1080p].mkv':
  Metadata:
    encoder         : libebml v1.3.10 + libmatroska v1.5.2
    creation_time   : 2024-10-04T13:48:57.000000Z
  Duration: 00:23:42.42, start: 0.000000, bitrate: 5386 kb/s
  Stream #1:0(jpn): Video: h264 (High), yuv420p(progressive), 1920x1080 [SAR 1:1 DAR 16:9], 24 fps, 24 tbr, 1k tbn (default) (forced)
      Metadata:
        BPS-eng         : 5014079
        DURATION-eng    : 00:23:42.417000000
        NUMBER_OF_FRAMES-eng: 34138
        NUMBER_OF_BYTES-eng: 891513907
        _STATISTICS_WRITING_APP-eng: mkvmerge v45.0.0 ('Heaven in Pennies') 64-bit
        _STATISTICS_WRITING_DATE_UTC-eng: 2024-10-04 13:48:57
        _STATISTICS_TAGS-eng: BPS DURATION NUMBER_OF_FRAMES NUMBER_OF_BYTES
  Stream #1:1(rus): Audio: aac (LC), 48000 Hz, stereo, fltp (default) (forced)
      Metadata:
        title           : AniLibria
        BPS-eng         : 192088
        DURATION-eng    : 00:23:42.400000000
        NUMBER_OF_FRAMES-eng: 66675
        NUMBER_OF_BYTES-eng: 34153247
        _STATISTICS_WRITING_APP-eng: mkvmerge v45.0.0 ('Heaven in Pennies') 64-bit
        _STATISTICS_WRITING_DATE_UTC-eng: 2024-10-04 13:48:57
        _STATISTICS_TAGS-eng: BPS DURATION NUMBER_OF_FRAMES NUMBER_OF_BYTES
  Stream #1:2(jpn): Audio: aac (LC), 48000 Hz, stereo, fltp
      Metadata:
        title           : Original
        BPS-eng         : 128824
        DURATION-eng    : 00:23:42.421000000
        NUMBER_OF_FRAMES-eng: 66676
        NUMBER_OF_BYTES-eng: 22905301
        _STATISTICS_WRITING_APP-eng: mkvmerge v45.0.0 ('Heaven in Pennies') 64-bit
        _STATISTICS_WRITING_DATE_UTC-eng: 2024-10-04 13:48:57
        _STATISTICS_TAGS-eng: BPS DURATION NUMBER_OF_FRAMES NUMBER_OF_BYTES
  Stream #1:3(rus): Subtitle: ass (ssa) (default) (forced)
      Metadata:
        title           : Надписи
        BPS-eng         : 142
        DURATION-eng    : 00:22:42.440000000
        NUMBER_OF_FRAMES-eng: 88
        NUMBER_OF_BYTES-eng: 24274
        _STATISTICS_WRITING_APP-eng: mkvmerge v45.0.0 ('Heaven in Pennies') 64-bit
        _STATISTICS_WRITING_DATE_UTC-eng: 2024-10-04 13:48:57
        _STATISTICS_TAGS-eng: BPS DURATION NUMBER_OF_FRAMES NUMBER_OF_BYTES
  Stream #1:4(rus): Subtitle: ass (ssa)
      Metadata:
        title           : Полные
        BPS-eng         : 303
        DURATION-eng    : 00:23:34.040000000
        NUMBER_OF_FRAMES-eng: 463
        NUMBER_OF_BYTES-eng: 53572
        _STATISTICS_WRITING_APP-eng: mkvmerge v45.0.0 ('Heaven in Pennies') 64-bit
        _STATISTICS_WRITING_DATE_UTC-eng: 2024-10-04 13:48:57
        _STATISTICS_TAGS-eng: BPS DURATION NUMBER_OF_FRAMES NUMBER_OF_BYTES
  Stream #1:5: Attachment: ttf
      Metadata:
        filename        : 10352_0.TTF
        mimetype        : application/x-truetype-font
  Stream #1:6: Attachment: ttf
      Metadata:
        filename        : ARIAL.TTF
        mimetype        : application/x-truetype-font
  Stream #1:7: Attachment: ttf
      Metadata:
        filename        : ARIAL_4.TTF
        mimetype        : application/x-truetype-font
  Stream #1:8: Attachment: ttf
      Metadata:
        filename        : ARIALBD.TTF
        mimetype        : application/x-truetype-font
  Stream #1:9: Attachment: ttf
      Metadata:
        filename        : ARIALBD_0.TTF
        mimetype        : application/x-truetype-font
  Stream #1:10: Attachment: ttf
      Metadata:
        filename        : ARIALBI.TTF
        mimetype        : application/x-truetype-font
  Stream #1:11: Attachment: ttf
      Metadata:
        filename        : ARIALBI_0.TTF
        mimetype        : application/x-truetype-font
  Stream #1:12: Attachment: ttf
      Metadata:
        filename        : ARIALI.TTF
        mimetype        : application/x-truetype-font
  Stream #1:13: Attachment: ttf
      Metadata:
        filename        : ARIALI_0.TTF
        mimetype        : application/x-truetype-font
  Stream #1:14: Attachment: ttf
      Metadata:
        filename        : ARIALN.TTF
        mimetype        : application/x-truetype-font
  Stream #1:15: Attachment: ttf
      Metadata:
        filename        : ARIALN_0.TTF
        mimetype        : application/x-truetype-font
  Stream #1:16: Attachment: ttf
      Metadata:
        filename        : ARIALNB.TTF
        mimetype        : application/x-truetype-font
  Stream #1:17: Attachment: ttf
      Metadata:
        filename        : ARIALNBI.TTF
        mimetype        : application/x-truetype-font
  Stream #1:18: Attachment: ttf
      Metadata:
        filename        : ARIALNI.TTF
        mimetype        : application/x-truetype-font
  Stream #1:19: Attachment: ttf
      Metadata:
        filename        : ARIBLK.TTF
        mimetype        : application/x-truetype-font
  Stream #1:20: Attachment: ttf
      Metadata:
        filename        : ARIBLK_0.TTF
        mimetype        : application/x-truetype-font
  Stream #1:21: Attachment: ttf
      Metadata:
        filename        : ARLEKINO.TTF
        mimetype        : application/x-truetype-font
  Stream #1:22: Attachment: ttf
      Metadata:
        filename        : BOOKOS.TTF
        mimetype        : application/x-truetype-font
  Stream #1:23: Attachment: ttf
      Metadata:
        filename        : BOOKOS_0.TTF
        mimetype        : application/x-truetype-font
  Stream #1:24: Attachment: ttf
      Metadata:
        filename        : BOOKOSB.TTF
        mimetype        : application/x-truetype-font
  Stream #1:25: Attachment: ttf
      Metadata:
        filename        : BOOKOSBI.TTF
        mimetype        : application/x-truetype-font
  Stream #1:26: Attachment: ttf
      Metadata:
        filename        : BOOKOSI.TTF
        mimetype        : application/x-truetype-font
  Stream #1:27: Attachment: ttf
      Metadata:
        filename        : Roboto-Medium.ttf
        mimetype        : application/x-truetype-font
Stream mapping:
  Stream #0:0 (hevc) -> settb:default
  Stream #1:0 (h264) -> settb:default
  psnr:default -> Stream #0:0 (wrapped_avframe)
  Stream #0:1 -> #0:1 (aac (native) -> pcm_s16le (native))
Output #0, null, to 'pipe:':
  Metadata:
    encoder         : Lavf61.7.100
  Stream #0:0: Video: wrapped_avframe, yuv420p10le(tv, progressive), 1920x1080 [SAR 1:1 DAR 16:9], q=2-31, 200 kb/s, 24 fps, 24 tbn
      Metadata:
        encoder         : Lavc61.19.100 wrapped_avframe
  Stream #0:1(rus): Audio: pcm_s16le, 48000 Hz, stereo, s16, 1536 kb/s (default) (forced)
      Metadata:
        title           : AniLibria
        _STATISTICS_TAGS: BPS DURATION NUMBER_OF_FRAMES NUMBER_OF_BYTES
        BPS             : 194199
        DURATION        : 00:23:42.399000000
        NUMBER_OF_FRAMES: 66676
        NUMBER_OF_BYTES : 34528622
        _STATISTICS_WRITING_APP: mkvpropedit v94.0 ('Initiate') 64-bit
        _STATISTICS_WRITING_DATE_UTC: 2026-04-02 09:47:07
        encoder         : Lavc61.19.100 pcm_s16le
frame=  160 fps=0.0 q=-0.0 size=N/A time=00:00:06.66 bitrate=N/A speed=13.3x    frame=  371 fps=360 q=-0.0 size=N/A time=00:00:15.45 bitrate=N/A speed=  15x    frame=  558 fps=362 q=-0.0 size=N/A time=00:00:23.25 bitrate=N/A speed=15.1x    frame=  774 fps=377 q=-0.0 size=N/A time=00:00:32.25 bitrate=N/A speed=15.7x    frame=  998 fps=389 q=-0.0 size=N/A time=00:00:41.58 bitrate=N/A speed=16.2x    frame= 1234 fps=399 q=-0.0 size=N/A time=00:00:51.41 bitrate=N/A speed=16.6x    frame= 1428 fps=396 q=-0.0 size=N/A time=00:00:59.50 bitrate=N/A speed=16.5x    frame= 1621 fps=394 q=-0.0 size=N/A time=00:01:07.54 bitrate=N/A speed=16.4x    frame= 1773 fps=383 q=-0.0 size=N/A time=00:01:13.87 bitrate=N/A speed=  16x    frame= 1963 fps=381 q=-0.0 size=N/A time=00:01:21.79 bitrate=N/A speed=15.9x    frame= 2137 fps=377 q=-0.0 size=N/A time=00:01:29.04 bitrate=N/A speed=15.7x    frame= 2316 fps=375 q=-0.0 size=N/A time=00:01:36.50 bitrate=N/A speed=15.6x    frame= 2506 fps=375 q=-0.0 size=N/A time=00:01:44.41 bitrate=N/A speed=15.6x    frame= 2665 fps=369 q=-0.0 size=N/A time=00:01:51.04 bitrate=N/A speed=15.4x    frame= 2809 fps=363 q=-0.0 size=N/A time=00:01:57.04 bitrate=N/A speed=15.1x    frame= 2959 fps=359 q=-0.0 size=N/A time=00:02:03.29 bitrate=N/A speed=  15x    frame= 3138 fps=359 q=-0.0 size=N/A time=00:02:10.75 bitrate=N/A speed=14.9x    frame= 3323 fps=358 q=-0.0 size=N/A time=00:02:18.45 bitrate=N/A speed=14.9x    frame= 3520 fps=359 q=-0.0 size=N/A time=00:02:26.66 bitrate=N/A speed=  15x    frame= 3746 fps=364 q=-0.0 size=N/A time=00:02:36.08 bitrate=N/A speed=15.2x    frame= 3966 fps=367 q=-0.0 size=N/A time=00:02:45.25 bitrate=N/A speed=15.3x    frame= 4177 fps=368 q=-0.0 size=N/A time=00:02:54.04 bitrate=N/A speed=15.3x    frame= 4398 fps=371 q=-0.0 size=N/A time=00:03:03.25 bitrate=N/A speed=15.5x    frame= 4628 fps=374 q=-0.0 size=N/A time=00:03:12.83 bitrate=N/A speed=15.6x    frame= 4867 fps=378 q=-0.0 size=N/A time=00:03:22.79 bitrate=N/A speed=15.7x    frame= 5086 fps=379 q=-0.0 size=N/A time=00:03:31.91 bitrate=N/A speed=15.8x    frame= 5308 fps=382 q=-0.0 size=N/A time=00:03:41.16 bitrate=N/A speed=15.9x    frame= 5513 fps=382 q=-0.0 size=N/A time=00:03:49.70 bitrate=N/A speed=15.9x    frame= 5718 fps=383 q=-0.0 size=N/A time=00:03:58.25 bitrate=N/A speed=15.9x    frame= 5920 fps=383 q=-0.0 size=N/A time=00:04:06.66 bitrate=N/A speed=  16x    frame= 6146 fps=385 q=-0.0 size=N/A time=00:04:16.08 bitrate=N/A speed=  16x    frame= 6357 fps=385 q=-0.0 size=N/A time=00:04:24.87 bitrate=N/A speed=16.1x    frame= 6569 fps=386 q=-0.0 size=N/A time=00:04:33.70 bitrate=N/A speed=16.1x    frame= 6788 fps=387 q=-0.0 size=N/A time=00:04:42.83 bitrate=N/A speed=16.1x    frame= 6986 fps=387 q=-0.0 size=N/A time=00:04:51.08 bitrate=N/A speed=16.1x    frame= 7220 fps=389 q=-0.0 size=N/A time=00:05:00.83 bitrate=N/A speed=16.2x    frame= 7446 fps=391 q=-0.0 size=N/A time=00:05:10.25 bitrate=N/A speed=16.3x    frame= 7683 fps=392 q=-0.0 size=N/A time=00:05:20.12 bitrate=N/A speed=16.3x    frame= 7917 fps=394 q=-0.0 size=N/A time=00:05:29.87 bitrate=N/A speed=16.4x    frame= 8141 fps=395 q=-0.0 size=N/A time=00:05:39.20 bitrate=N/A speed=16.5x    frame= 8347 fps=395 q=-0.0 size=N/A time=00:05:47.79 bitrate=N/A speed=16.5x    frame= 8583 fps=396 q=-0.0 size=N/A time=00:05:57.62 bitrate=N/A speed=16.5x    frame= 8801 fps=397 q=-0.0 size=N/A time=00:06:06.70 bitrate=N/A speed=16.5x    frame= 9029 fps=398 q=-0.0 size=N/A time=00:06:16.20 bitrate=N/A speed=16.6x    frame= 9255 fps=399 q=-0.0 size=N/A time=00:06:25.62 bitrate=N/A speed=16.6x    frame= 9470 fps=399 q=-0.0 size=N/A time=00:06:34.58 bitrate=N/A speed=16.6x    frame= 9693 fps=400 q=-0.0 size=N/A time=00:06:43.87 bitrate=N/A speed=16.7x    frame= 9912 fps=401 q=-0.0 size=N/A time=00:06:53.00 bitrate=N/A speed=16.7x    frame=10148 fps=402 q=-0.0 size=N/A time=00:07:02.83 bitrate=N/A speed=16.7x    frame=10380 fps=403 q=-0.0 size=N/A time=00:07:12.50 bitrate=N/A speed=16.8x    frame=10599 fps=403 q=-0.0 size=N/A time=00:07:21.62 bitrate=N/A speed=16.8x    frame=10808 fps=403 q=-0.0 size=N/A time=00:07:30.33 bitrate=N/A speed=16.8x    frame=10998 fps=403 q=-0.0 size=N/A time=00:07:38.25 bitrate=N/A speed=16.8x    frame=11212 fps=403 q=-0.0 size=N/A time=00:07:47.16 bitrate=N/A speed=16.8x    frame=11431 fps=403 q=-0.0 size=N/A time=00:07:56.33 bitrate=N/A speed=16.8x    frame=11652 fps=404 q=-0.0 size=N/A time=00:08:05.50 bitrate=N/A speed=16.8x    frame=11875 fps=404 q=-0.0 size=N/A time=00:08:14.79 bitrate=N/A speed=16.8x    frame=12100 fps=405 q=-0.0 size=N/A time=00:08:24.16 bitrate=N/A speed=16.9x    frame=12331 fps=406 q=-0.0 size=N/A time=00:08:33.79 bitrate=N/A speed=16.9x    frame=12574 fps=406 q=-0.0 size=N/A time=00:08:43.91 bitrate=N/A speed=16.9x    frame=12791 fps=407 q=-0.0 size=N/A time=00:08:52.95 bitrate=N/A speed=16.9x    frame=13024 fps=408 q=-0.0 size=N/A time=00:09:02.66 bitrate=N/A speed=  17x    frame=13245 fps=408 q=-0.0 size=N/A time=00:09:11.87 bitrate=N/A speed=  17x    frame=13459 fps=408 q=-0.0 size=N/A time=00:09:20.79 bitrate=N/A speed=  17x    frame=13665 fps=408 q=-0.0 size=N/A time=00:09:29.37 bitrate=N/A speed=  17x    frame=13882 fps=408 q=-0.0 size=N/A time=00:09:38.41 bitrate=N/A speed=  17x    frame=14108 fps=408 q=-0.0 size=N/A time=00:09:47.83 bitrate=N/A speed=  17x    frame=14334 fps=409 q=-0.0 size=N/A time=00:09:57.25 bitrate=N/A speed=  17x    frame=14563 fps=409 q=-0.0 size=N/A time=00:10:06.79 bitrate=N/A speed=17.1x    frame=14803 fps=410 q=-0.0 size=N/A time=00:10:16.79 bitrate=N/A speed=17.1x    frame=15030 fps=411 q=-0.0 size=N/A time=00:10:26.25 bitrate=N/A speed=17.1x    frame=15269 fps=411 q=-0.0 size=N/A time=00:10:36.20 bitrate=N/A speed=17.1x    frame=15480 fps=411 q=-0.0 size=N/A time=00:10:45.00 bitrate=N/A speed=17.1x    frame=15711 fps=412 q=-0.0 size=N/A time=00:10:54.62 bitrate=N/A speed=17.2x    frame=15935 fps=412 q=-0.0 size=N/A time=00:11:03.95 bitrate=N/A speed=17.2x    frame=16184 fps=413 q=-0.0 size=N/A time=00:11:14.33 bitrate=N/A speed=17.2x    frame=16404 fps=413 q=-0.0 size=N/A time=00:11:23.50 bitrate=N/A speed=17.2x    frame=16624 fps=413 q=-0.0 size=N/A time=00:11:32.66 bitrate=N/A speed=17.2x    frame=16857 fps=414 q=-0.0 size=N/A time=00:11:42.37 bitrate=N/A speed=17.2x    frame=17085 fps=414 q=-0.0 size=N/A time=00:11:51.87 bitrate=N/A speed=17.3x    frame=17323 fps=415 q=-0.0 size=N/A time=00:12:01.79 bitrate=N/A speed=17.3x    frame=17548 fps=415 q=-0.0 size=N/A time=00:12:11.16 bitrate=N/A speed=17.3x    frame=17778 fps=416 q=-0.0 size=N/A time=00:12:20.75 bitrate=N/A speed=17.3x    frame=18011 fps=416 q=-0.0 size=N/A time=00:12:30.45 bitrate=N/A speed=17.3x    frame=18240 fps=416 q=-0.0 size=N/A time=00:12:40.00 bitrate=N/A speed=17.3x    frame=18439 fps=416 q=-0.0 size=N/A time=00:12:48.29 bitrate=N/A speed=17.3x    frame=18651 fps=416 q=-0.0 size=N/A time=00:12:57.12 bitrate=N/A speed=17.3x    frame=18895 fps=416 q=-0.0 size=N/A time=00:13:07.29 bitrate=N/A speed=17.4x    frame=19117 fps=417 q=-0.0 size=N/A time=00:13:16.54 bitrate=N/A speed=17.4x    frame=19341 fps=417 q=-0.0 size=N/A time=00:13:25.87 bitrate=N/A speed=17.4x    frame=19581 fps=417 q=-0.0 size=N/A time=00:13:35.87 bitrate=N/A speed=17.4x    frame=19817 fps=418 q=-0.0 size=N/A time=00:13:45.70 bitrate=N/A speed=17.4x    frame=20045 fps=418 q=-0.0 size=N/A time=00:13:55.20 bitrate=N/A speed=17.4x    frame=20273 fps=418 q=-0.0 size=N/A time=00:14:04.70 bitrate=N/A speed=17.4x    frame=20506 fps=419 q=-0.0 size=N/A time=00:14:14.41 bitrate=N/A speed=17.4x    frame=20743 fps=419 q=-0.0 size=N/A time=00:14:24.29 bitrate=N/A speed=17.5x    frame=20951 fps=419 q=-0.0 size=N/A time=00:14:32.95 bitrate=N/A speed=17.5x    frame=21160 fps=419 q=-0.0 size=N/A time=00:14:41.66 bitrate=N/A speed=17.5x    frame=21374 fps=419 q=-0.0 size=N/A time=00:14:50.58 bitrate=N/A speed=17.5x    frame=21603 fps=419 q=-0.0 size=N/A time=00:15:00.12 bitrate=N/A speed=17.5x    frame=21840 fps=419 q=-0.0 size=N/A time=00:15:10.00 bitrate=N/A speed=17.5x    frame=22068 fps=420 q=-0.0 size=N/A time=00:15:19.50 bitrate=N/A speed=17.5x    frame=22274 fps=419 q=-0.0 size=N/A time=00:15:28.08 bitrate=N/A speed=17.5x    frame=22485 fps=419 q=-0.0 size=N/A time=00:15:36.87 bitrate=N/A speed=17.5x    frame=22710 fps=420 q=-0.0 size=N/A time=00:15:46.25 bitrate=N/A speed=17.5x    frame=22945 fps=420 q=-0.0 size=N/A time=00:15:56.04 bitrate=N/A speed=17.5x    frame=23173 fps=420 q=-0.0 size=N/A time=00:16:05.54 bitrate=N/A speed=17.5x    frame=23412 fps=421 q=-0.0 size=N/A time=00:16:15.50 bitrate=N/A speed=17.5x    frame=23621 fps=420 q=-0.0 size=N/A time=00:16:24.20 bitrate=N/A speed=17.5x    frame=23853 fps=421 q=-0.0 size=N/A time=00:16:33.87 bitrate=N/A speed=17.5x    frame=24093 fps=421 q=-0.0 size=N/A time=00:16:43.87 bitrate=N/A speed=17.5x    frame=24318 fps=421 q=-0.0 size=N/A time=00:16:53.25 bitrate=N/A speed=17.5x    frame=24541 fps=421 q=-0.0 size=N/A time=00:17:02.54 bitrate=N/A speed=17.6x    frame=24790 fps=422 q=-0.0 size=N/A time=00:17:12.91 bitrate=N/A speed=17.6x    frame=25021 fps=422 q=-0.0 size=N/A time=00:17:22.54 bitrate=N/A speed=17.6x    frame=25247 fps=422 q=-0.0 size=N/A time=00:17:31.95 bitrate=N/A speed=17.6x    frame=25484 fps=423 q=-0.0 size=N/A time=00:17:41.83 bitrate=N/A speed=17.6x    frame=25707 fps=423 q=-0.0 size=N/A time=00:17:51.12 bitrate=N/A speed=17.6x    frame=25936 fps=423 q=-0.0 size=N/A time=00:18:00.66 bitrate=N/A speed=17.6x    frame=26149 fps=423 q=-0.0 size=N/A time=00:18:09.54 bitrate=N/A speed=17.6x    frame=26374 fps=423 q=-0.0 size=N/A time=00:18:18.91 bitrate=N/A speed=17.6x    frame=26603 fps=423 q=-0.0 size=N/A time=00:18:28.45 bitrate=N/A speed=17.6x    frame=26804 fps=423 q=-0.0 size=N/A time=00:18:36.83 bitrate=N/A speed=17.6x    frame=27004 fps=422 q=-0.0 size=N/A time=00:18:45.16 bitrate=N/A speed=17.6x    frame=27214 fps=422 q=-0.0 size=N/A time=00:18:53.91 bitrate=N/A speed=17.6x    frame=27448 fps=422 q=-0.0 size=N/A time=00:19:03.66 bitrate=N/A speed=17.6x    frame=27647 fps=422 q=-0.0 size=N/A time=00:19:11.95 bitrate=N/A speed=17.6x    frame=27844 fps=422 q=-0.0 size=N/A time=00:19:20.16 bitrate=N/A speed=17.6x    frame=27972 fps=421 q=-0.0 size=N/A time=00:19:25.50 bitrate=N/A speed=17.5x    frame=28167 fps=420 q=-0.0 size=N/A time=00:19:33.62 bitrate=N/A speed=17.5x    frame=28334 fps=420 q=-0.0 size=N/A time=00:19:40.58 bitrate=N/A speed=17.5x    frame=28520 fps=419 q=-0.0 size=N/A time=00:19:48.33 bitrate=N/A speed=17.5x    frame=28709 fps=419 q=-0.0 size=N/A time=00:19:56.20 bitrate=N/A speed=17.4x    frame=28918 fps=418 q=-0.0 size=N/A time=00:20:04.91 bitrate=N/A speed=17.4x    frame=29129 fps=418 q=-0.0 size=N/A time=00:20:13.70 bitrate=N/A speed=17.4x    frame=29354 fps=419 q=-0.0 size=N/A time=00:20:23.08 bitrate=N/A speed=17.4x    frame=29554 fps=418 q=-0.0 size=N/A time=00:20:31.41 bitrate=N/A speed=17.4x    frame=29707 fps=417 q=-0.0 size=N/A time=00:20:37.79 bitrate=N/A speed=17.4x    frame=29863 fps=417 q=-0.0 size=N/A time=00:20:44.29 bitrate=N/A speed=17.4x    frame=30035 fps=416 q=-0.0 size=N/A time=00:20:51.45 bitrate=N/A speed=17.3x    frame=30205 fps=415 q=-0.0 size=N/A time=00:20:58.54 bitrate=N/A speed=17.3x    frame=30381 fps=415 q=-0.0 size=N/A time=00:21:05.87 bitrate=N/A speed=17.3x    frame=30560 fps=414 q=-0.0 size=N/A time=00:21:13.33 bitrate=N/A speed=17.3x    frame=30729 fps=414 q=-0.0 size=N/A time=00:21:20.37 bitrate=N/A speed=17.2x    frame=30913 fps=413 q=-0.0 size=N/A time=00:21:28.04 bitrate=N/A speed=17.2x    frame=31078 fps=413 q=-0.0 size=N/A time=00:21:34.91 bitrate=N/A speed=17.2x    frame=31265 fps=412 q=-0.0 size=N/A time=00:21:42.70 bitrate=N/A speed=17.2x    frame=31441 fps=412 q=-0.0 size=N/A time=00:21:50.04 bitrate=N/A speed=17.2x    frame=31666 fps=412 q=-0.0 size=N/A time=00:21:59.41 bitrate=N/A speed=17.2x    frame=31881 fps=412 q=-0.0 size=N/A time=00:22:08.37 bitrate=N/A speed=17.2x    frame=32090 fps=412 q=-0.0 size=N/A time=00:22:17.08 bitrate=N/A speed=17.2x    frame=32319 fps=412 q=-0.0 size=N/A time=00:22:26.62 bitrate=N/A speed=17.2x    frame=32556 fps=413 q=-0.0 size=N/A time=00:22:36.50 bitrate=N/A speed=17.2x    frame=32781 fps=413 q=-0.0 size=N/A time=00:22:45.87 bitrate=N/A speed=17.2x    frame=33026 fps=413 q=-0.0 size=N/A time=00:22:56.08 bitrate=N/A speed=17.2x    frame=33254 fps=413 q=-0.0 size=N/A time=00:23:05.58 bitrate=N/A speed=17.2x    frame=33501 fps=414 q=-0.0 size=N/A time=00:23:15.87 bitrate=N/A speed=17.2x    frame=33735 fps=414 q=-0.0 size=N/A time=00:23:25.62 bitrate=N/A speed=17.3x    frame=33969 fps=414 q=-0.0 size=N/A time=00:23:35.41 bitrate=N/A speed=17.3x    [Parsed_psnr_14 @ 000001dd4878ee80] PSNR y:48.474588 u:51.180732 v:51.612660 average:49.247527 min:41.535281 max:inf
[out#0/null @ 000001dd4476cfc0] video:14669KiB audio:266704KiB subtitle:0KiB other streams:0KiB global headers:0KiB muxing overhead: unknown
frame=34138 fps=414 q=-0.0 Lsize=N/A time=00:23:42.41 bitrate=N/A speed=17.3x    
